HIERARCHY
ROOT RootJoint
{
    OFFSET   0.000000   0.000000   0.000000
    CHANNELS 6 Xposition Yposition Zposition Xrotation Yrotation Zrotation
    JOINT pelvis_lowerback
    {
        OFFSET   0.000000   0.093605   0.000000
        CHANNELS 3 Xrotation Yrotation Zrotation
        JOINT lowerback_torso
        {
            OFFSET   0.000000   0.100000   0.000000
            CHANNELS 3 Xrotation Yrotation Zrotation
            JOINT torso_head
            {
                OFFSET   0.000000   0.282350   0.000000
                CHANNELS 3 Xrotation Yrotation Zrotation
                End Site
                {
                    OFFSET   0.000000   0.192650   0.000000
                }
            }
            JOINT rTorso_Clavicle
            {
                OFFSET  -0.001000   0.157500   0.000000
                CHANNELS 3 Xrotation Yrotation Zrotation
                JOINT rShoulder
                {
                    OFFSET  -0.117647   0.000000   0.000000
                    CHANNELS 3 Xrotation Yrotation Zrotation
                    JOINT rElbow
                    {
                        OFFSET  -0.245000   0.000000   0.000000
                        CHANNELS 3 Xrotation Yrotation Zrotation
                        JOINT rWrist
                        {
                            OFFSET  -0.240000   0.000000   0.000000
                            CHANNELS 3 Xrotation Yrotation Zrotation
                            End Site
                            {
                                OFFSET  -0.116353  -0.002500   0.000000
                            }
                        }
                    }
                }
            }
            JOINT lTorso_Clavicle
            {
                OFFSET   0.001000   0.157500   0.000000
                CHANNELS 3 Xrotation Yrotation Zrotation
                JOINT lShoulder
                {
                    OFFSET   0.117647   0.000000   0.000000
                    CHANNELS 3 Xrotation Yrotation Zrotation
                    JOINT lElbow
                    {
                        OFFSET   0.245000   0.000000   0.000000
                        CHANNELS 3 Xrotation Yrotation Zrotation
                        JOINT lWrist
                        {
                            OFFSET   0.240000   0.000000   0.000000
                            CHANNELS 3 Xrotation Yrotation Zrotation
                            End Site
                            {
                                OFFSET   0.116353  -0.002500   0.000000
                            }
                        }
                    }
                }
            }
        }
    }
    JOINT rHip
    {
        OFFSET  -0.100000  -0.051395   0.000000
        CHANNELS 3 Xrotation Yrotation Zrotation
        JOINT rKnee
        {
            OFFSET   0.000000  -0.410000   0.000000
            CHANNELS 3 Xrotation Yrotation Zrotation
            JOINT rAnkle
            {
                OFFSET   0.000000  -0.390000   0.000000
                CHANNELS 3 Xrotation Yrotation Zrotation
                JOINT rToeJoint
                {
                    OFFSET   0.000000  -0.050000   0.130000
                    CHANNELS 3 Xrotation Yrotation Zrotation
                    End Site
                    {
                        OFFSET  -0.010000   0.002000   0.060000
                    }
                }
            }
        }
    }
    JOINT lHip
    {
        OFFSET   0.100000  -0.051395   0.000000
        CHANNELS 3 Xrotation Yrotation Zrotation
        JOINT lKnee
        {
            OFFSET   0.000000  -0.410000   0.000000
            CHANNELS 3 Xrotation Yrotation Zrotation
            JOINT lAnkle
            {
                OFFSET   0.000000  -0.390000   0.000000
                CHANNELS 3 Xrotation Yrotation Zrotation
                JOINT lToeJoint
                {
                    OFFSET   0.000000  -0.050000   0.130000
                    CHANNELS 3 Xrotation Yrotation Zrotation
                    End Site
                    {
                        OFFSET   0.010000   0.002000   0.060000
                    }
                }
            }
        }
    }
}
MOTION
Frames: 17
Frame Time:   0.008333
 -2.364856   0.913271   3.937608  11.332966 -15.553036   3.893317  30.081530  -3.198136  -2.925606   8.845368  -4.688058  -3.735619   8.817047  -0.469708  -6.073833  -2.704568   8.059524 -11.523245  -2.752870   8.083707  55.133952 -179.996824  78.989305 179.988420  -9.782066   3.038862  -4.613084  -2.342661 -21.832518   6.971700 -11.922189 -19.115590 -47.619523   0.018820 -56.758682   0.008628 -10.734737  -3.053018  13.287193 -20.193764  -0.966390  -6.459185   5.018309   0.000003  -0.000030   4.002166   0.515272   1.276315   0.130104  -0.000005   0.000001 -13.342219   9.072410   6.179499   7.705875  -0.000065  -0.000135  -4.588402   8.048675  -1.876683   0.281767  -0.000018  -0.000086
 -2.365095   0.913271   3.938514  11.304338 -15.642535   3.839128  30.004180  -3.266571  -2.974150   8.777770  -4.718974  -3.830416   8.885846  -0.501484  -6.136852  -2.620520   7.577652 -11.674219  -1.870818   7.998402  54.965528 -179.998457  78.207797 179.989489  -9.788787   3.027857  -4.432536  -2.238214 -21.507525   6.965344 -11.394719 -19.296334 -47.986197   0.018847 -57.162499   0.008992 -10.805803  -3.122326  13.184172 -20.092877  -0.910303  -6.384478   5.004305   0.000002  -0.000023   3.949944   0.517840   1.279400   0.129601  -0.000004   0.000001 -13.273134   9.053380   6.267705   7.790164  -0.000083  -0.000177  -4.728978   7.974628  -1.867292   0.288964  -0.000017  -0.000079
 -2.365337   0.913271   3.939424  11.275156 -15.739605   3.784468  29.919242  -3.340086  -3.030179   8.718351  -4.758022  -3.926131   8.952692  -0.531400  -6.195996  -2.521237   7.084649 -11.829147  -1.016570   7.903651  54.803048 -179.998746  77.463591 179.989469  -9.792477   3.081250  -4.191848  -2.120205 -21.173107   6.965545 -10.880083 -19.455402 -48.327939   0.018532 -57.539387   0.009104 -10.871323  -3.200386  13.059575 -19.988343  -0.852935  -6.307113   4.982570   0.000002  -0.000017   3.902009   0.525940   1.281172   0.129156  -0.000003   0.000001 -13.202110   9.036452   6.357444   7.876311  -0.000099  -0.000215  -4.872417   7.906430  -1.857654   0.296734  -0.000017  -0.000075
 -2.365570   0.913268   3.940317  11.244690 -15.837246   3.730760  29.831754  -3.418694  -3.090686   8.663606  -4.804388  -4.020961   9.015512  -0.559750  -6.251408  -2.421690   6.601654 -11.978838  -0.206460   7.802453  54.648490 -179.998207  76.769327 179.988893  -9.889957   3.141970  -3.954746  -2.000514 -20.846279   6.966593 -10.388798 -19.598144 -48.644336   0.017890 -57.886943   0.008984 -10.938559  -3.256561  12.936692 -19.884681  -0.797091  -6.231512   4.961165   0.000002  -0.000012   3.855333   0.536976   1.282550   0.128758  -0.000003   0.000001 -13.129779   9.022058   6.444447   7.960330  -0.000110  -0.000243  -5.012984   7.843945  -1.848973   0.304339  -0.000016  -0.000071
 -2.365789   0.913264   3.941178  11.213754 -15.932505   3.678666  29.743962  -3.500065  -3.153702   8.611079  -4.855536  -4.113852   9.074217  -0.586598  -6.303390  -2.326629   6.137944 -12.120960   0.555591   7.699347  54.503362 -179.997379  76.122430 179.988247  -9.876429   3.183852  -3.739934  -1.884708 -20.534727   6.967443  -9.925438 -19.729718 -48.937777   0.017018 -58.208759   0.008696 -11.006643  -3.294884  12.819736 -19.783924  -0.743663  -6.159095   4.941238   0.000001  -0.000007   3.809978   0.549391   1.283702   0.128439  -0.000002   0.000000 -13.058025   9.009629   6.527473   8.041168  -0.000116  -0.000260  -5.148561   7.786226  -1.841316   0.311588  -0.000015  -0.000066
 -2.365993   0.913260   3.942004  11.182987 -16.024018   3.628514  29.656922  -3.582038  -3.217999   8.559469  -4.909219  -4.204239   9.129023  -0.611951  -6.352157  -2.237703   5.698005 -12.254687   1.269478   7.597669  54.368260 -179.996559  75.519189 179.987768  -9.867146   3.218302  -3.541776  -1.775581 -20.241794   6.967821  -9.491598 -19.853183 -49.210305   0.015997 -58.507980   0.008291 -11.073767  -3.323429  12.708611 -19.686953  -0.693020  -6.090396   4.922722   0.000001  -0.000004   3.766278   0.562368   1.284662   0.128219  -0.000002   0.000000 -12.988013   8.998726   6.606096   8.118401  -0.000118  -0.000268  -5.278211   7.732644  -1.834657   0.318398  -0.000014  -0.000062
 -2.366181   0.913255   3.942791  11.153081 -16.114315   3.582096  29.570981  -3.662061  -3.284786   8.507881  -4.963112  -4.292905   9.180123  -0.635811  -6.398035  -2.155465   5.283855 -12.379554   1.936513   7.499567  54.243474 -179.995868  74.956137 179.987532  -9.861073   3.248945  -3.356663  -1.674316 -19.968211   6.967793  -9.087049 -19.970036 -49.463429   0.014888 -58.786929   0.007808 -11.138718  -3.347894  12.603074 -19.594758  -0.643416  -6.026213   4.905369   0.000001  -0.000001   3.724804   0.577134   1.285170   0.128162  -0.000001   0.000000 -12.919337   8.983761   6.680426   8.192149  -0.000118  -0.000274  -5.400757   7.677214  -1.828942   0.589311  -0.000088  -0.000407
 -2.366393   0.913231   3.943520  11.148982 -16.228887   3.535511  29.504632  -3.742017  -3.366483   8.428306  -4.999555  -4.382224   9.211834  -0.676114  -6.449081  -2.083123   4.863455 -12.545063   2.738249   7.346271  54.113194 -179.996045  74.293132 179.987694  -9.858182   3.291565  -3.139206  -1.578681 -19.659437   7.020270  -8.630774 -20.086496 -49.740565   0.014894 -59.157949   0.008021 -11.212141  -3.397685  12.512287 -19.505388  -0.567470  -5.943760   4.830773   0.000001   0.000005   3.723172   0.585340   1.296648   0.125071  -0.000001   0.000000 -12.855426   8.953368   6.765593   8.232805  -0.000110  -0.000266  -5.531596   7.649990  -1.814679   0.575226  -0.000066  -0.000305
 -2.366634   0.913237   3.944197  11.148073 -16.322690   3.500823  29.445467  -3.838184  -3.460050   8.359432  -5.051659  -4.473175   9.242524  -0.714588  -6.497143  -2.000169   4.432928 -12.711471   3.511479   7.184954  53.987161 -179.996144  73.668971 179.987854  -9.857166   3.352677  -2.907019  -1.479361 -19.350111   7.078876  -8.191000 -20.188404 -49.994187   0.014673 -59.506038   0.008035 -11.278318  -3.465512  12.412533 -19.414730  -0.502053  -5.875760   4.743387   0.000004   0.000006   3.728208   0.587596   1.302102   0.122900  -0.000000   0.000000 -12.809300   8.949528   6.832169   8.280479  -0.000102  -0.000250  -5.625390   7.652923  -1.807858   0.533365  -0.000041  -0.000212
 -2.366902   0.913243   3.944825  11.147833 -16.409884   3.465449  29.390186  -3.937444  -3.557238   8.300384  -5.111219  -4.566099   9.272960  -0.750892  -6.543204  -1.917088   4.011217 -12.872800   4.244079   7.022816  53.867481 -179.996153  73.087897 179.988031  -9.858546   3.400982  -2.688004  -1.381444 -19.051167   7.135709  -7.773203 -20.279302 -50.227782   0.014235 -59.828225   0.007875 -11.343895  -3.521022  12.318210 -19.328342  -0.441926  -5.806530   4.658450   0.000008   0.000006   3.734275   0.588806   1.306290   0.120379  -0.000000   0.000000 -12.767287   8.947650   6.899659   8.324617  -0.000094  -0.000230  -5.713788   7.656501  -1.797728   0.502158  -0.000024  -0.000148
 -2.367189   0.913248   3.945404  11.148099 -16.490615   3.430044  29.339727  -4.037958  -3.656965   8.248302  -5.174850  -4.659812   9.302310  -0.785136  -6.587059  -1.837717   3.606887 -13.025990   4.932820   6.864421  53.755906 -179.996172  72.546777 179.988319  -9.861654   3.436419  -2.485990  -1.287784 -18.768027   7.188594  -7.379919 -20.362871 -50.444235   0.013641 -60.126988   0.007592 -11.409124  -3.563582  12.229747 -19.247468  -0.386777  -5.737275   4.578284   0.000012   0.000005   3.740544   0.589246   1.310253   0.117402   0.000000   0.000000 -12.729470   8.947181   6.967171   8.365850  -0.000087  -0.000210  -5.796167   7.661534  -1.787832   0.478786  -0.000012  -0.000104
 -2.367490   0.913251   3.945936  11.148972 -16.564648   3.394954  29.294109  -4.137843  -3.757808   8.201628  -5.240278  -4.753450   9.330349  -0.817388  -6.628721  -1.763467   3.223808 -13.169982   5.577732   6.712419  53.653042 -179.996252  72.042250 179.988746  -9.865920   3.463873  -2.298103  -1.199785 -18.502960   7.236815  -7.011882 -20.441431 -50.645755   0.012942 -60.404843   0.007223 -11.473090  -3.597845  12.145296 -19.172170  -0.336483  -5.668734   4.502950   0.000017   0.000004   3.746884   0.588718   1.314143   0.114038   0.000001   0.000000 -12.695983   8.947993   7.034014   8.404424  -0.000080  -0.000190  -5.872547   7.667903  -1.778347   0.461571  -0.000005  -0.000074
 -2.367801   0.913253   3.946425  11.150576 -16.631864   3.360389  29.253068  -4.235644  -3.858616   8.159322  -5.305832  -4.846293   9.357010  -0.847712  -6.668241  -1.694787   2.863493 -13.304527   6.180189   6.568204  53.558846 -179.996402  71.571392 179.989299  -9.870974   3.487213  -2.121127  -1.118012 -18.256447   7.280309  -6.668716 -20.516237 -50.833878   0.012175 -60.663814   0.006798 -11.535060  -3.627684  12.063566 -19.102233  -0.290800  -5.601420   4.432156   0.000021   0.000002   3.753199   0.587176   1.318011   0.110371   0.000001   0.000000 -12.666768   8.949852   7.099731   8.440411  -0.000073  -0.000169  -5.943081   7.675367  -1.769270   0.449217  -0.000000  -0.000054
 -2.368129   0.913271   3.946753  11.193189 -16.683514   3.328880  29.243994  -4.343104  -3.947106   8.078633  -5.371036  -4.940340   9.379938  -0.893153  -6.715361  -1.644380   2.498812 -13.477057   6.811143   6.344746  53.474643 -179.996179  71.077727 179.989188  -9.878817   3.531652  -1.882588  -1.026265 -17.996042   7.381766  -6.333544 -20.560448 -51.033080   0.012168 -61.015672   0.006805 -11.591533  -3.647957  11.963448 -19.070970  -0.230539  -5.533579   4.331442   0.000022  -0.000025   3.814944   0.622365   1.338432   0.060384   0.000012  -0.000029 -12.698871   8.947790   7.170234   8.483765  -0.000068  -0.000152  -5.997230   7.721402  -1.754782   0.441124   0.000002  -0.000043
 -2.368504   0.913287   3.947001  11.244214 -16.724535   3.299136  29.245115  -4.455240  -4.039429   8.007666  -5.443145  -5.034609   9.405020  -0.936487  -6.760536  -1.593872   2.132963 -13.654701   7.411094   6.119201  53.388714 -179.996172  70.615944 179.989280  -9.886108   3.579684  -1.673881  -0.940849 -17.738184   7.490736  -6.015213 -20.595839 -51.209294   0.011971 -61.347883   0.006703 -11.639642  -3.695706  11.871208 -19.049278  -0.165424  -5.465682   4.226005   0.000025  -0.000062   3.881928   0.663256   1.356613   0.009960   0.000020  -0.000061 -12.742867   8.940813   7.243460   8.518341  -0.000063  -0.000133  -6.040577   7.761825  -1.738190   0.437510   0.000003  -0.000035
 -2.368986   0.913211   3.947253  11.286369 -16.724196   3.305889  29.245397  -4.583451  -4.156807   7.949630  -5.530890  -5.135083   9.433321  -0.978212  -6.802969  -1.541098   1.770787 -13.824866   7.981892   5.898433  53.309656 -179.996355  70.185319 179.989586  -9.893814   3.616503  -1.482961  -0.859887 -17.491588   7.598344  -5.713811 -20.626120 -51.368309   0.011481 -61.656559   0.006352 -11.685644  -3.739765  11.781651 -19.015584  -0.099472  -5.450729   4.153507   0.000023  -0.000095   4.027669   0.702783   1.336813  -0.936994  -0.000137  -0.000953 -12.781246   8.919532   7.276335   8.560205  -0.000061  -0.000113  -6.084188   7.783239  -1.732077   0.435303   0.000003  -0.000028
 -2.369499   0.913220   3.947401  11.345668 -16.749925   3.274446  29.260535  -4.687988  -4.249620   7.894171  -5.604029  -5.233031   9.457126  -1.016333  -6.845559  -1.496353   1.434960 -13.988235   8.510998   5.689149  53.232755 -179.996729  69.785654 179.990175  -9.901206   3.643696  -1.317506  -0.788060 -17.259664   7.697312  -5.433987 -20.651992 -51.513381   0.010992 -61.943119   0.006036 -11.730469  -3.779664  11.718278 -19.000599  -0.033236  -5.376947   4.048229   0.000031  -0.000133   4.044809   0.748677   1.369819  -0.771456  -0.000176  -0.000605 -12.838655   8.906091   7.361596   8.584874  -0.000057  -0.000096  -6.114844   7.813912  -1.716626   0.438358   0.000001  -0.000022
